<svg width="36" height="36" viewBox="0 0 36 36" fill="none" xmlns="http://www.w3.org/2000/svg">
    <g clip-path="url(#clip0_1640_122)">
        <rect x="20.7998" y="3.69995" width="13.3" height="26.8" rx="3" stroke="black" stroke-width="2"/>
        <path d="M31.3999 9.90002C31.3999 11.833 29.8329 13.4 27.8999 13.4C25.9669 13.4 24.3999 11.833 24.3999 9.90002C24.3999 7.96703 25.9669 6.40002 27.8999 6.40002C29.8329 6.40002 31.3999 7.96703 31.3999 9.90002Z" stroke="black" stroke-width="2"/>
        <mask id="path-3-inside-1_1640_122" fill="white">
            <ellipse cx="27.9001" cy="18" rx="1.8" ry="1.8"/>
        </mask>
        <ellipse cx="27.9001" cy="18" rx="1.8" ry="1.8" fill="black"/>
        <path d="M27.7001 18C27.7001 17.8895 27.7896 17.7999 27.9001 17.7999V21.7999C29.9988 21.7999 31.7001 20.0986 31.7001 18H27.7001ZM27.9001 17.7999C28.0106 17.7999 28.1001 17.8895 28.1001 18H24.1001C24.1001 20.0986 25.8014 21.7999 27.9001 21.7999V17.7999ZM28.1001 18C28.1001 18.1104 28.0106 18.2 27.9001 18.2V14.2C25.8014 14.2 24.1001 15.9013 24.1001 18H28.1001ZM27.9001 18.2C27.7896 18.2 27.7001 18.1104 27.7001 18H31.7001C31.7001 15.9013 29.9988 14.2 27.9001 14.2V18.2Z" fill="black" mask="url(#path-3-inside-1_1640_122)"/>
        <rect x="1.8999" y="21.7" width="32.2" height="10.8" rx="3" fill="white" stroke="black" stroke-width="2"/>
        <path d="M22.5 27L13.5001 27.0409" stroke="black" stroke-width="2" stroke-linecap="round"/>
        <path d="M8.9 27C8.9 27.9389 8.13888 28.7001 7.2 28.7001C6.26112 28.7001 5.5 27.9389 5.5 27C5.5 26.0612 6.26112 25.3 7.2 25.3C8.13888 25.3 8.9 26.0612 8.9 27Z" stroke="black" stroke-width="2"/>
        <path d="M30.5001 27C30.5001 27.9389 29.739 28.7001 28.8001 28.7001C27.8612 28.7001 27.1001 27.9389 27.1001 27C27.1001 26.0612 27.8612 25.3 28.8001 25.3C29.739 25.3 30.5001 26.0612 30.5001 27Z" stroke="black" stroke-width="2"/>
        <path d="M6.3999 34.2V33.2H4.3999V34.2H6.3999ZM4.3999 35.0999C4.3999 35.6522 4.84762 36.0999 5.3999 36.0999C5.95219 36.0999 6.3999 35.6522 6.3999 35.0999H4.3999ZM4.3999 34.2V35.0999H6.3999V34.2H4.3999Z" fill="black"/>
        <path d="M31.6001 34.2V33.2H29.6001V34.2H31.6001ZM29.6001 35.0999C29.6001 35.6522 30.0478 36.0999 30.6001 36.0999C31.1524 36.0999 31.6001 35.6522 31.6001 35.0999H29.6001ZM29.6001 34.2V35.0999H31.6001V34.2H29.6001Z" fill="black"/>
    </g>
    <defs>
        <clipPath id="clip0_1640_122">
            <rect width="36" height="36" fill="white"/>
        </clipPath>
    </defs>
</svg>
