<svg width="36" height="36" viewBox="0 0 36 36" fill="none" xmlns="http://www.w3.org/2000/svg">
    <path fill-rule="evenodd" clip-rule="evenodd" d="M4.8999 8.30005H31.0999C32.2045 8.30005 33.0999 9.19548 33.0999 10.3V22.1C33.0999 23.2046 32.2045 24.1 31.0999 24.1H4.89991C3.79533 24.1 2.8999 23.2046 2.8999 22.1V10.3001C2.8999 9.19548 3.79533 8.30005 4.8999 8.30005ZM0.899902 10.3001C0.899902 8.09091 2.69076 6.30005 4.8999 6.30005H31.0999C33.309 6.30005 35.0999 8.09091 35.0999 10.3V22.1C35.0999 24.3092 33.309 26.1 31.0999 26.1H18.9848V28.8581L27.0368 30.2779C27.5807 30.3738 27.9439 30.8925 27.848 31.4364C27.7521 31.9803 27.2334 32.3435 26.6895 32.2476L17.8721 30.6928L17.1096 30.8272L9.13268 32.2338C8.58878 32.3297 8.07013 31.9665 7.97422 31.4226C7.87832 30.8787 8.24149 30.3601 8.78538 30.2642L16.7623 28.8576L16.9848 28.8184V26.1H4.89991C2.69077 26.1 0.899902 24.3092 0.899902 22.1V10.3001Z" fill="white"/>
</svg>
