<svg width="36" height="36" viewBox="0 0 36 36" fill="none" xmlns="http://www.w3.org/2000/svg">
    <circle cx="17.9998" cy="18" r="15.2" stroke="white" stroke-width="2"/>
    <path fill-rule="evenodd" clip-rule="evenodd" d="M15.197 9.6684C16.1194 10.5909 17.8882 13.959 17.7616 16.0478C17.9027 16.0326 18.0452 16.0325 18.1863 16.0478C18.0603 13.9589 19.8286 10.5918 20.751 9.66945C21.9012 8.51918 24.077 8.83 25.6107 10.3637C27.1444 11.8974 27.4552 14.0732 26.305 15.2234C25.3826 16.1458 22.0151 17.9144 19.9262 17.7881C19.9414 17.9289 19.9414 18.0711 19.9262 18.2119C22.0151 18.0856 25.3826 19.8542 26.305 20.7765C27.4552 21.9268 27.1444 24.1026 25.6107 25.6363C24.077 27.17 21.9012 27.4808 20.751 26.3306C19.8286 25.4082 18.0603 22.0411 18.1863 19.9522C18.0452 19.9675 17.9027 19.9674 17.7616 19.9522C17.8882 22.041 16.1194 25.4091 15.197 26.3316C14.0467 27.4819 11.8709 27.171 10.3372 25.6374C8.80351 24.1037 8.49268 21.9279 9.64295 20.7776C10.5654 19.8552 13.9329 18.0866 16.0218 18.213C16.0065 18.0714 16.0065 17.9286 16.0218 17.787C13.9329 17.9134 10.5654 16.1448 9.64295 15.2224C8.49268 14.0721 8.80351 11.8963 10.3372 10.3626C11.8709 8.82895 14.0467 8.51813 15.197 9.6684Z" fill="white"/>
</svg>
