<svg width="36" height="36" viewBox="0 0 36 36" fill="none" xmlns="http://www.w3.org/2000/svg">
    <path d="M10.7998 18L7.1998 18" stroke="black" stroke-width="2" stroke-linecap="round"/>
    <mask id="path-2-inside-1_1640_137" fill="white">
        <path fill-rule="evenodd" clip-rule="evenodd" d="M31.0999 11.7H30.339C29.5645 9.09761 27.1538 7.19995 24.2999 7.19995C21.446 7.19995 19.0353 9.09761 18.2608 11.7H4.8999C2.69076 11.7 0.899902 13.4908 0.899902 15.7V20.5C0.899902 22.5398 2.42675 24.223 4.3999 24.469V24.5003V25.3003C4.3999 25.8526 4.84762 26.3003 5.3999 26.3003C5.95219 26.3003 6.3999 25.8526 6.3999 25.3003V24.5003V24.5H29.5999V24.5003V25.3003C29.5999 25.8526 30.0476 26.3003 30.5999 26.3003C31.1522 26.3003 31.5999 25.8526 31.5999 25.3003V24.5003V24.469C33.5731 24.223 35.0999 22.5398 35.0999 20.4999V15.7C35.0999 13.4908 33.309 11.7 31.0999 11.7ZM30.5968 13.7C30.4912 17.0868 27.7124 19.8 24.2999 19.8C20.8874 19.8 18.1086 17.0868 18.003 13.7H4.8999C3.79534 13.7 2.8999 14.5954 2.8999 15.7V20.5C2.8999 21.6045 3.79533 22.5 4.89991 22.5H31.0999C32.2045 22.5 33.0999 21.6045 33.0999 20.4999V15.7C33.0999 14.5954 32.2045 13.7 31.0999 13.7H30.5968Z"/>
    </mask>
    <path fill-rule="evenodd" clip-rule="evenodd" d="M31.0999 11.7H30.339C29.5645 9.09761 27.1538 7.19995 24.2999 7.19995C21.446 7.19995 19.0353 9.09761 18.2608 11.7H4.8999C2.69076 11.7 0.899902 13.4908 0.899902 15.7V20.5C0.899902 22.5398 2.42675 24.223 4.3999 24.469V24.5003V25.3003C4.3999 25.8526 4.84762 26.3003 5.3999 26.3003C5.95219 26.3003 6.3999 25.8526 6.3999 25.3003V24.5003V24.5H29.5999V24.5003V25.3003C29.5999 25.8526 30.0476 26.3003 30.5999 26.3003C31.1522 26.3003 31.5999 25.8526 31.5999 25.3003V24.5003V24.469C33.5731 24.223 35.0999 22.5398 35.0999 20.4999V15.7C35.0999 13.4908 33.309 11.7 31.0999 11.7ZM30.5968 13.7C30.4912 17.0868 27.7124 19.8 24.2999 19.8C20.8874 19.8 18.1086 17.0868 18.003 13.7H4.8999C3.79534 13.7 2.8999 14.5954 2.8999 15.7V20.5C2.8999 21.6045 3.79533 22.5 4.89991 22.5H31.0999C32.2045 22.5 33.0999 21.6045 33.0999 20.4999V15.7C33.0999 14.5954 32.2045 13.7 31.0999 13.7H30.5968Z" fill="white"/>
    <path d="M30.339 11.7L28.4221 12.2705L28.8475 13.7H30.339V11.7ZM18.2608 11.7V13.7H19.7523L20.1777 12.2705L18.2608 11.7ZM4.3999 24.469H6.3999V22.7029L4.64738 22.4844L4.3999 24.469ZM6.3999 24.5V22.5H4.3999V24.5H6.3999ZM29.5999 24.5H31.5999V22.5H29.5999V24.5ZM31.5999 24.469L31.3524 22.4844L29.5999 22.7029V24.469H31.5999ZM30.5968 13.7V11.7H28.6582L28.5978 13.6376L30.5968 13.7ZM18.003 13.7L20.002 13.6376L19.9416 11.7H18.003V13.7ZM30.339 13.7H31.0999V9.69995H30.339V13.7ZM24.2999 9.19995C26.2449 9.19995 27.8931 10.4928 28.4221 12.2705L32.2559 11.1295C31.236 7.70239 28.0628 5.19995 24.2999 5.19995V9.19995ZM20.1777 12.2705C20.7067 10.4928 22.3549 9.19995 24.2999 9.19995V5.19995C20.537 5.19995 17.3638 7.70239 16.3439 11.1295L20.1777 12.2705ZM4.8999 13.7H18.2608V9.69995H4.8999V13.7ZM2.8999 15.7C2.8999 14.5954 3.79534 13.7 4.8999 13.7V9.69995C1.58619 9.69995 -1.1001 12.3862 -1.1001 15.7H2.8999ZM2.8999 20.5V15.7H-1.1001V20.5H2.8999ZM4.64738 22.4844C3.66285 22.3616 2.8999 21.5183 2.8999 20.5H-1.1001C-1.1001 23.5612 1.19064 26.0843 4.15242 26.4536L4.64738 22.4844ZM2.3999 24.469V24.5003H6.3999V24.469H2.3999ZM2.3999 24.5003V25.3003H6.3999V24.5003H2.3999ZM2.3999 25.3003C2.3999 26.9572 3.74305 28.3003 5.3999 28.3003V24.3003C5.95219 24.3003 6.3999 24.7481 6.3999 25.3003H2.3999ZM5.3999 28.3003C7.05676 28.3003 8.3999 26.9572 8.3999 25.3003H4.3999C4.3999 24.7481 4.84762 24.3003 5.3999 24.3003V28.3003ZM8.3999 25.3003V24.5003H4.3999V25.3003H8.3999ZM8.3999 24.5003V24.5H4.3999V24.5003H8.3999ZM29.5999 22.5H6.3999V26.5H29.5999V22.5ZM27.5999 24.5V24.5003H31.5999V24.5H27.5999ZM27.5999 24.5003V25.3003H31.5999V24.5003H27.5999ZM27.5999 25.3003C27.5999 26.9572 28.943 28.3003 30.5999 28.3003V24.3003C31.1522 24.3003 31.5999 24.7481 31.5999 25.3003H27.5999ZM30.5999 28.3003C32.2568 28.3003 33.5999 26.9572 33.5999 25.3003H29.5999C29.5999 24.7481 30.0476 24.3003 30.5999 24.3003V28.3003ZM33.5999 25.3003V24.5003H29.5999V25.3003H33.5999ZM33.5999 24.5003V24.469H29.5999V24.5003H33.5999ZM33.0999 20.4999C33.0999 21.5183 32.337 22.3616 31.3524 22.4844L31.8474 26.4536C34.8092 26.0843 37.0999 23.5612 37.0999 20.4999H33.0999ZM33.0999 15.7V20.4999H37.0999V15.7H33.0999ZM31.0999 13.7C32.2045 13.7 33.0999 14.5954 33.0999 15.7H37.0999C37.0999 12.3862 34.4136 9.69995 31.0999 9.69995V13.7ZM24.2999 21.8C28.7961 21.8 32.4566 18.2255 32.5958 13.7623L28.5978 13.6376C28.5257 15.9481 26.6287 17.8 24.2999 17.8V21.8ZM16.004 13.7623C16.1432 18.2255 19.8037 21.8 24.2999 21.8V17.8C21.9711 17.8 20.0741 15.9481 20.002 13.6376L16.004 13.7623ZM4.8999 15.7H18.003V11.7H4.8999V15.7ZM4.8999 15.7V15.7V11.7C2.69076 11.7 0.899902 13.4908 0.899902 15.7H4.8999ZM4.8999 20.5V15.7H0.899902V20.5H4.8999ZM4.89991 20.5H4.8999H0.899902C0.899902 22.7091 2.69076 24.5 4.89991 24.5V20.5ZM31.0999 20.5H4.89991V24.5H31.0999V20.5ZM31.0999 20.4999V20.5V24.5C33.309 24.5 35.0999 22.7091 35.0999 20.4999H31.0999ZM31.0999 15.7V20.4999H35.0999V15.7H31.0999ZM31.0999 15.7H31.0999H35.0999C35.0999 13.4908 33.309 11.7 31.0999 11.7V15.7ZM30.5968 15.7H31.0999V11.7H30.5968V15.7Z" fill="black" mask="url(#path-2-inside-1_1640_137)"/>
</svg>
