<svg width="36" height="30" viewBox="0 0 36 30" fill="none" xmlns="http://www.w3.org/2000/svg">
    <path d="M33.1999 9.9C33.1999 14.8153 29.2152 18.8 24.2999 18.8C19.3846 18.8 15.3999 14.8153 15.3999 9.9C15.3999 4.98467 19.3846 1 24.2999 1C29.2152 1 33.1999 4.98467 33.1999 9.9Z" fill="white" stroke="black" stroke-width="2"/>
    <path d="M26.0001 9.89995C26.0001 10.8388 25.239 11.6 24.3001 11.6C23.3612 11.6 22.6001 10.8388 22.6001 9.89995C22.6001 8.96107 23.3612 8.19995 24.3001 8.19995C25.239 8.19995 26.0001 8.96107 26.0001 9.89995Z" fill="black" stroke="black" stroke-width="2"/>
    <rect x="1.8999" y="14.5" width="32.2" height="12.4" rx="3" fill="white" stroke="black" stroke-width="2"/>
    <path d="M6.3999 27.9V26.9H4.3999V27.9H6.3999ZM4.3999 28.8C4.3999 29.3523 4.84762 29.8 5.3999 29.8C5.95219 29.8 6.3999 29.3523 6.3999 28.8H4.3999ZM4.3999 27.9V28.8H6.3999V27.9H4.3999Z" fill="black"/>
    <path d="M31.6001 27.9V26.9H29.6001V27.9H31.6001ZM29.6001 28.8C29.6001 29.3523 30.0478 29.8 30.6001 29.8C31.1524 29.8 31.6001 29.3523 31.6001 28.8H29.6001ZM29.6001 27.9V28.8H31.6001V27.9H29.6001Z" fill="black"/>
    <path d="M14.3999 20.6833L5.4 20.7242" stroke="black" stroke-width="2" stroke-linecap="round"/>
</svg>
