<svg width="48" height="48" viewBox="0 0 48 48" fill="none" xmlns="http://www.w3.org/2000/svg">
    <path fill-rule="evenodd" clip-rule="evenodd" d="M12 4H20V6H12V4ZM8 8H12V6H8V8ZM6 12H8V8H6V12ZM8 18V16H6V12H4V20H6V24H8V26H0V28V38V40H6V42H8H10H12V40H36V42H38H40H42V40H48V38V28V26H24V24H26V20H28V12H26V8H24V6H20V8H22V10H20V12H18V14H16H14V16V18H12V16H10V18H8ZM8 20V18H6V20H8ZM10 20H8V22H10V24H12V26H20V24H24V20H26V16H24V14H26V12H24V10H22V12H20V14H18V16V18H16H14V20H12V18H10V20ZM10 20H12V22H10V20ZM22 14H24V12H22V14ZM22 14H20V16H22V14ZM46 38V28H2V38H46ZM4 34V32H28V34H4ZM32 30H34V32H32V30ZM30 32H32V34H30V32ZM34 34V32H36V34H34ZM34 34H32V36H34V34ZM42 30H40V32H38V34H40V36H42V34H44V32H42V30ZM42 34H40V32H42V34Z" fill="white"/>
</svg>
