<svg width="36" height="36" viewBox="0 0 36 36" fill="none" xmlns="http://www.w3.org/2000/svg">
    <path d="M2.7998 13.5143C2.7998 11.8575 4.14295 10.5143 5.7998 10.5143H12.1788C13.7539 10.5143 15.2411 9.76042 16.1832 8.50847C16.7525 7.75198 17.6511 7.30005 18.5896 7.30005H21.7123H23.035C23.9735 7.30005 24.8721 7.75198 25.4414 8.50847C26.3835 9.76042 27.8707 10.5143 29.4458 10.5143H30.1998C31.8567 10.5143 33.1998 11.8575 33.1998 13.5143V24.8C33.1998 26.4569 31.8567 27.8 30.1998 27.8H5.7998C4.14295 27.8 2.7998 26.4569 2.7998 24.8V13.5143Z" stroke="white" stroke-width="2"/>
    <path d="M26.9 18C26.9 21.4242 24.1242 24.2 20.7 24.2C17.2758 24.2 14.5 21.4242 14.5 18C14.5 14.5759 17.2758 11.8 20.7 11.8C24.1242 11.8 26.9 14.5759 26.9 18Z" stroke="white" stroke-width="2"/>
    <path d="M9.7999 16.2C9.7999 17.1389 9.03879 17.9 8.0999 17.9C7.16102 17.9 6.3999 17.1389 6.3999 16.2C6.3999 15.2611 7.16102 14.5 8.0999 14.5C9.03879 14.5 9.7999 15.2611 9.7999 16.2Z" stroke="white" stroke-width="2"/>
</svg>
