<svg width="36" height="36" viewBox="0 0 36 36" fill="none" xmlns="http://www.w3.org/2000/svg">
    <path fill-rule="evenodd" clip-rule="evenodd" d="M31.0999 11.9H4.8999C3.79533 11.9 2.8999 12.7955 2.8999 13.9V20.3C2.8999 21.4046 3.79533 22.3 4.89991 22.3H31.0999C32.2045 22.3 33.0999 21.4046 33.0999 20.3V13.9C33.0999 12.7955 32.2045 11.9 31.0999 11.9ZM4.8999 9.90002C2.69076 9.90002 0.899902 11.6909 0.899902 13.9V20.3C0.899902 22.3398 2.42675 24.023 4.3999 24.2691V24.3V25.2C4.3999 25.7523 4.84762 26.2 5.3999 26.2C5.95219 26.2 6.3999 25.7523 6.3999 25.2V24.3H29.5999V25.2C29.5999 25.7523 30.0476 26.2 30.5999 26.2C31.1522 26.2 31.5999 25.7523 31.5999 25.2V24.3V24.2691C33.5731 24.023 35.0999 22.3398 35.0999 20.3V13.9C35.0999 11.6909 33.309 9.90002 31.0999 9.90002H4.8999Z" fill="white"/>
    <path d="M21.6001 17.1L7.2001 17.1" stroke="white" stroke-width="2" stroke-linecap="round"/>
    <path d="M27.8999 17.1H28.7999" stroke="white" stroke-width="2" stroke-linecap="round"/>
</svg>
