<svg width="36" height="36" viewBox="0 0 36 36" fill="none" xmlns="http://www.w3.org/2000/svg">
    <mask id="path-1-inside-1_1577_90" fill="white">
        <path fill-rule="evenodd" clip-rule="evenodd" d="M33.0999 13.9V22.803C33.0999 23.5744 32.6562 24.2771 31.9598 24.6087L29.656 25.7057C29.3874 25.8337 29.0936 25.9 28.7961 25.9H28.5785C28.5554 25.6975 28.4966 25.4934 28.3974 25.295C28.0925 24.6852 27.4692 24.3 26.7874 24.3H9.21236C8.53057 24.3 7.9073 24.6852 7.6024 25.295C7.50324 25.4934 7.44441 25.6975 7.42135 25.9H7.20366C6.90616 25.9 6.6124 25.8337 6.3438 25.7057L4.04004 24.6087C3.34355 24.2771 2.8999 23.5744 2.8999 22.803V13.9C2.8999 12.7955 3.79533 11.9 4.8999 11.9H6.2999H29.6999H31.0999C32.2045 11.9 33.0999 12.7955 33.0999 13.9ZM9.21236 27.9H7.20366C6.60865 27.9 6.02114 27.7673 5.48393 27.5115L3.18017 26.4144C1.78721 25.7511 0.899902 24.3458 0.899902 22.803V13.9C0.899902 11.6909 2.69076 9.90002 4.8999 9.90002H6.2999H29.6999H31.0999C33.309 9.90002 35.0999 11.6909 35.0999 13.9V22.803C35.0999 24.3458 34.2126 25.7511 32.8196 26.4144L30.5159 27.5115C29.9787 27.7673 29.3911 27.9 28.7961 27.9H26.7874H9.21236ZM6.30148 20.5798C5.74919 20.5789 5.30077 21.026 5.2999 21.5782C5.29903 22.1305 5.74604 22.5789 6.29833 22.5798L29.6983 22.6166C30.2506 22.6175 30.699 22.1705 30.6999 21.6182C30.7007 21.0659 30.2537 20.6175 29.7014 20.6166L6.30148 20.5798ZM10.6999 18C10.6999 17.4477 11.1476 17 11.6999 17H24.2999C24.8522 17 25.2999 17.4477 25.2999 18C25.2999 18.5523 24.8522 19 24.2999 19H11.6999C11.1476 19 10.6999 18.5523 10.6999 18Z"/>
    </mask>
    <path fill-rule="evenodd" clip-rule="evenodd" d="M33.0999 13.9V22.803C33.0999 23.5744 32.6562 24.2771 31.9598 24.6087L29.656 25.7057C29.3874 25.8337 29.0936 25.9 28.7961 25.9H28.5785C28.5554 25.6975 28.4966 25.4934 28.3974 25.295C28.0925 24.6852 27.4692 24.3 26.7874 24.3H9.21236C8.53057 24.3 7.9073 24.6852 7.6024 25.295C7.50324 25.4934 7.44441 25.6975 7.42135 25.9H7.20366C6.90616 25.9 6.6124 25.8337 6.3438 25.7057L4.04004 24.6087C3.34355 24.2771 2.8999 23.5744 2.8999 22.803V13.9C2.8999 12.7955 3.79533 11.9 4.8999 11.9H6.2999H29.6999H31.0999C32.2045 11.9 33.0999 12.7955 33.0999 13.9ZM9.21236 27.9H7.20366C6.60865 27.9 6.02114 27.7673 5.48393 27.5115L3.18017 26.4144C1.78721 25.7511 0.899902 24.3458 0.899902 22.803V13.9C0.899902 11.6909 2.69076 9.90002 4.8999 9.90002H6.2999H29.6999H31.0999C33.309 9.90002 35.0999 11.6909 35.0999 13.9V22.803C35.0999 24.3458 34.2126 25.7511 32.8196 26.4144L30.5159 27.5115C29.9787 27.7673 29.3911 27.9 28.7961 27.9H26.7874H9.21236ZM6.30148 20.5798C5.74919 20.5789 5.30077 21.026 5.2999 21.5782C5.29903 22.1305 5.74604 22.5789 6.29833 22.5798L29.6983 22.6166C30.2506 22.6175 30.699 22.1705 30.6999 21.6182C30.7007 21.0659 30.2537 20.6175 29.7014 20.6166L6.30148 20.5798ZM10.6999 18C10.6999 17.4477 11.1476 17 11.6999 17H24.2999C24.8522 17 25.2999 17.4477 25.2999 18C25.2999 18.5523 24.8522 19 24.2999 19H11.6999C11.1476 19 10.6999 18.5523 10.6999 18Z" fill="white"/>
    <path d="M31.9598 24.6087L32.8196 26.4144L31.9598 24.6087ZM29.656 25.7057L28.7961 23.9L29.656 25.7057ZM28.5785 25.9L26.5913 26.1263L26.7932 27.9H28.5785V25.9ZM28.3974 25.295L30.1863 24.4006L30.1863 24.4006L28.3974 25.295ZM7.6024 25.295L9.39125 26.1895L9.39125 26.1895L7.6024 25.295ZM7.42135 25.9V27.9H9.20658L9.40851 26.1263L7.42135 25.9ZM6.3438 25.7057L7.20367 23.9L7.20366 23.9L6.3438 25.7057ZM4.04004 24.6087L4.8999 22.803H4.8999L4.04004 24.6087ZM5.48393 27.5115L4.62406 29.3172H4.62407L5.48393 27.5115ZM3.18017 26.4144L4.04004 24.6087L4.04004 24.6087L3.18017 26.4144ZM32.8196 26.4144L31.9598 24.6087V24.6087L32.8196 26.4144ZM30.5159 27.5115L31.3757 29.3172H31.3757L30.5159 27.5115ZM5.2999 21.5782L3.29991 21.5751L5.2999 21.5782ZM6.30148 20.5798L6.30462 18.5798H6.30462L6.30148 20.5798ZM6.29833 22.5798L6.29518 24.5798H6.29518L6.29833 22.5798ZM29.6983 22.6166L29.6952 24.6166H29.6952L29.6983 22.6166ZM30.6999 21.6182L32.6999 21.6214L30.6999 21.6182ZM29.7014 20.6166L29.7046 18.6166L29.7014 20.6166ZM35.0999 22.803V13.9H31.0999V22.803H35.0999ZM32.8196 26.4144C34.2126 25.7511 35.0999 24.3458 35.0999 22.803H31.0999V22.803L32.8196 26.4144ZM30.5159 27.5115L32.8196 26.4144L31.0999 22.803L28.7961 23.9L30.5159 27.5115ZM28.7961 27.9C29.3911 27.9 29.9787 27.7673 30.5159 27.5115L28.7961 23.9V27.9ZM28.5785 27.9H28.7961V23.9H28.5785V27.9ZM26.6086 26.1895C26.6027 26.1777 26.5946 26.1556 26.5913 26.1263L30.5656 25.6738C30.5162 25.2394 30.3905 24.809 30.1863 24.4006L26.6086 26.1895ZM26.7874 26.3C26.7117 26.3 26.6424 26.2572 26.6086 26.1895L30.1863 24.4006C29.5426 23.1132 28.2268 22.3 26.7874 22.3V26.3ZM9.21236 26.3H26.7874V22.3H9.21236V26.3ZM9.39125 26.1895C9.35737 26.2572 9.28812 26.3 9.21236 26.3V22.3C7.77303 22.3 6.45723 23.1132 5.81354 24.4006L9.39125 26.1895ZM9.40851 26.1263C9.40517 26.1556 9.39714 26.1777 9.39125 26.1895L5.81354 24.4006C5.60934 24.809 5.48364 25.2394 5.43418 25.6738L9.40851 26.1263ZM7.20366 27.9H7.42135V23.9H7.20366V27.9ZM5.48393 27.5115C6.02114 27.7673 6.60866 27.9 7.20366 27.9V23.9L7.20367 23.9L5.48393 27.5115ZM3.18017 26.4144L5.48393 27.5115L7.20366 23.9L4.8999 22.803L3.18017 26.4144ZM0.899902 22.803C0.899902 24.3458 1.7872 25.7511 3.18017 26.4144L4.8999 22.803H4.8999H0.899902ZM0.899902 13.9V22.803H4.8999V13.9H0.899902ZM4.8999 9.90002C2.69076 9.90002 0.899902 11.6909 0.899902 13.9H4.8999L4.8999 13.9V9.90002ZM6.2999 9.90002H4.8999V13.9H6.2999V9.90002ZM29.6999 9.90002H6.2999V13.9H29.6999V9.90002ZM31.0999 9.90002H29.6999V13.9H31.0999V9.90002ZM35.0999 13.9C35.0999 11.6909 33.309 9.90002 31.0999 9.90002V13.9H35.0999ZM7.20366 29.9H9.21236V25.9H7.20366V29.9ZM4.62407 29.3172C5.42988 29.7009 6.31115 29.9 7.20366 29.9V25.9C6.90616 25.9 6.6124 25.8337 6.34379 25.7057L4.62407 29.3172ZM2.3203 28.2202L4.62406 29.3172L6.3438 25.7057L4.04004 24.6087L2.3203 28.2202ZM-1.1001 22.803C-1.1001 25.1172 0.230857 27.2252 2.3203 28.2202L4.04004 24.6087C3.34355 24.2771 2.8999 23.5744 2.8999 22.803H-1.1001ZM-1.1001 13.9V22.803H2.8999V13.9H-1.1001ZM4.8999 7.90002C1.58619 7.90002 -1.1001 10.5863 -1.1001 13.9H2.8999C2.8999 12.7955 3.79533 11.9 4.8999 11.9V7.90002ZM6.2999 7.90002H4.8999V11.9H6.2999V7.90002ZM29.6999 7.90002H6.2999V11.9H29.6999V7.90002ZM31.0999 7.90002H29.6999V11.9H31.0999V7.90002ZM37.0999 13.9C37.0999 10.5863 34.4136 7.90002 31.0999 7.90002V11.9C32.2045 11.9 33.0999 12.7955 33.0999 13.9H37.0999ZM37.0999 22.803V13.9H33.0999V22.803H37.0999ZM33.6795 28.2202C35.7689 27.2252 37.0999 25.1172 37.0999 22.803H33.0999C33.0999 23.5744 32.6562 24.2771 31.9598 24.6087L33.6795 28.2202ZM31.3757 29.3172L33.6795 28.2202L31.9598 24.6087L29.656 25.7057L31.3757 29.3172ZM28.7961 29.9C29.6887 29.9 30.5699 29.7009 31.3757 29.3172L29.656 25.7057C29.3874 25.8337 29.0936 25.9 28.7961 25.9V29.9ZM26.7874 29.9H28.7961V25.9H26.7874V29.9ZM26.7874 25.9H9.21236V29.9H26.7874V25.9ZM7.2999 21.5814C7.29903 22.1337 6.85061 22.5807 6.29833 22.5798L6.30462 18.5798C4.64777 18.5772 3.30251 19.9182 3.29991 21.5751L7.2999 21.5814ZM6.30148 20.5798C6.85376 20.5807 7.30077 21.0291 7.2999 21.5814L3.29991 21.5751C3.2973 23.2319 4.63833 24.5772 6.29518 24.5798L6.30148 20.5798ZM29.7014 20.6166L6.30148 20.5798L6.29518 24.5798L29.6952 24.6166L29.7014 20.6166ZM28.6999 21.6151C28.7007 21.0628 29.1492 20.6158 29.7014 20.6166L29.6952 24.6166C31.352 24.6192 32.6973 23.2782 32.6999 21.6214L28.6999 21.6151ZM29.6983 22.6166C29.146 22.6158 28.699 22.1674 28.6999 21.6151L32.6999 21.6214C32.7025 19.9645 31.3614 18.6193 29.7046 18.6166L29.6983 22.6166ZM6.29833 22.5798L29.6983 22.6166L29.7046 18.6166L6.30462 18.5798L6.29833 22.5798ZM11.6999 15C10.043 15 8.6999 16.3432 8.6999 18H12.6999C12.6999 18.5523 12.2522 19 11.6999 19V15ZM24.2999 15H11.6999V19H24.2999V15ZM27.2999 18C27.2999 16.3432 25.9568 15 24.2999 15V19C23.7476 19 23.2999 18.5523 23.2999 18H27.2999ZM24.2999 21C25.9568 21 27.2999 19.6569 27.2999 18H23.2999C23.2999 17.4477 23.7476 17 24.2999 17V21ZM11.6999 21H24.2999V17H11.6999V21ZM8.6999 18C8.6999 19.6569 10.043 21 11.6999 21V17C12.2522 17 12.6999 17.4477 12.6999 18H8.6999Z" fill="white" mask="url(#path-1-inside-1_1577_90)"/>
</svg>
