<svg width="48" height="48" viewBox="0 0 48 48" fill="none" xmlns="http://www.w3.org/2000/svg">
    <path fill-rule="evenodd" clip-rule="evenodd" d="M16 6H18H20V8H18H16H14H12H10V6H12H14H16ZM8 10V8H10V10H8ZM8 10V12H6V10H8ZM22 10H20V8H22V10ZM22 10H24V12H22V10ZM44 8H46V10V12V14V16V18V20V22V24V26V28V30V32V34V36V38V40V42H44V40V38V36V34V32V30V28V26V24V22V20V18V16V14V12V10V8ZM32 8V6H34H36H38H40H42H44V8H42H40H38H36H34H32ZM32 42H30V40V38V36V34V32V30V28V26V24V22V20V18V16V14V12V10V8H32V10V12V14V16V18V20V22V24V26V28V30V32V34V36V38V40V42ZM32 42V44H34H36H38H40H42H44V42H42H40H38H36H34H32ZM2 28V30V32V34V36V38V40H4V42H6V44H8H10H12H14H16H18H20H22H24V42H26V40H28V38V36V34V32V30V28V26V24V22H26V20H24V18H22H20H18H16H14H12H10H8H6V20H4V22H2V24V26V28ZM16 28V26H18V28V30V32V34H16V32V30V28ZM20 34V36H18V34H20ZM20 34V32V30V28V26H22V28V30V32V34H20ZM12 36H10V34V32V30V28H8V26H10H12H14V28H12V30V32V34V36ZM16 10H18V12H16H14H12V10H14H16ZM10 14V12H12V14H10ZM10 14V16H8V14H10ZM20 14H18V12H20V14ZM20 14H22V16H20V14ZM34 12H36V14H34V12ZM38 16H36H34V18H36H38V16ZM38 20H36H34V22H36H38V20ZM38 24H36V26H34V28V30H36V32H38H40V30H42V28V26H40V24H38ZM40 26V28V30H38H36V28V26H38H40ZM38 12H40H42V14H40H38V12ZM42 34H40V36H42V34ZM34 34H36V36H34V34ZM36 38H34V40H36V38ZM40 38H42V40H40V38ZM42 16H40V18H42V16ZM40 20H42V22H40V20Z" fill="white"/>
</svg>
